<svg viewBox="0 0 200 200" height="400" width="400" xmlns="http://www.w3.org/2000/svg"><path d="M75.987,14.407c1.537.153,1.809-.586,1.47-.647-.757-.1-1.243.48-2.819-.378-.2-.109-.431.162-.256.324A2.69,2.69,0,0,0,75.987,14.407Z" fill="#191919"></path><path d="M74.059,16.511a2.976,2.976,0,0,0,1.712.3c1.576-.206,1.748-1.069,1.335-1-.674.117-1.32.912-2.886.365C74,16.1,73.856,16.417,74.059,16.511Z" fill="#191919"></path><path d="M76.634,18.884a.188.188,0,0,0-.256-.256c-.449.215-.653.679-1.753.7a.176.176,0,0,0,0,.351A2.078,2.078,0,0,0,76.634,18.884Z" fill="#191919"></path><path d="M84.374,17.589a.5.5,0,1,0,.5.5A.516.516,0,0,0,84.374,17.589Z" fill="#191919"></path><path d="M87.961,16.511a.438.438,0,0,0,0,.876A.438.438,0,0,0,87.961,16.511Z" fill="#191919"></path><path d="M86.006,16.227c-.148-.2-.488-.012-.351.2a25.028,25.028,0,0,1,1.632,2.494c.2.93-.432.811-.863.769-.27-.026-.338.435-.067.485.618.116,1.521.054,1.564-.768.025-.5-.4-.964-.661-1.349C86.839,17.438,86.439,16.82,86.006,16.227Z" fill="#191919"></path><path d="M84.7,20.556c-.121.85-.159,2.162.849,2.522a.708.708,0,0,0,.9-.391,2.306,2.306,0,0,0,.445-1.3.182.182,0,0,0,0-.364,3.482,3.482,0,0,1-1.807-.634C84.954,20.313,84.711,20.394,84.7,20.556Zm.876,1.955c-.472-.255-.472-.917-.418-1.456a3.078,3.078,0,0,0,1.335.364C86.276,21.864,86.1,22.8,85.574,22.511Z" fill="#191919"></path><path d="M88.252,28.83l-.021-.008C88.236,28.844,88.246,28.839,88.252,28.83Z" fill="#191919"></path><path d="M90.092,24.723c-.175-.15-.531.07-.364.3a6.659,6.659,0,0,1,1.618,3.8c.015.458.041.619-.445.472a10.9,10.9,0,0,0-2.619-.84c.668-.5.77-1.525.623-3.138a.193.193,0,0,0-.229-.189,4.357,4.357,0,0,0-.148-.431,1.928,1.928,0,0,0,1.537-1.173,5.036,5.036,0,0,0,0-2.064,22.66,22.66,0,0,0-1.807-7.012c-.229-2.171-2.859-3.5-4.76-3.8a10.347,10.347,0,0,0-4.032.242c-1.964.465-2.81.711-4.5-.175a.269.269,0,0,0-.324.418c1.681,1.837,4.788.193,6.81.041a8.062,8.062,0,0,1,4.167.755,4.143,4.143,0,0,1,2.13,2.414,29.931,29.931,0,0,1,1.834,8.09c.111,1.65-.951,1.919-2.629,1.848a13.672,13.672,0,0,1-4.4-.89c-.338-.133-.511.438-.149.553a14.909,14.909,0,0,0,5.624.836c.026.271.155,1.3.391,1.442-.117.99-.253,1.414-.3,1.835a11.6,11.6,0,0,1-3.964-.135,10.712,10.712,0,0,1-3.048-1.227,12.486,12.486,0,0,0,.135-3.291.3.3,0,0,0-.3-.3,2.29,2.29,0,0,1-1.753-.391,2.154,2.154,0,0,1-.526-1.484c.019-.863.593-1.269,1.349-1.524a.276.276,0,0,0-.068-.539c-1.02-.032-1.207.658-1.806.957a4.575,4.575,0,0,1-3.142.85c-.162.017-.272.246-.095.337a3.382,3.382,0,0,0,3.169-.472,2.843,2.843,0,0,0,.674,2.333,2.394,2.394,0,0,0,1.942.539,24.627,24.627,0,0,1,.135,2.805c-.175-.121-.362-.231-.539-.364-.147-.11-.324.135-.189.243a8.724,8.724,0,0,0,4.032,2.09,7.41,7.41,0,0,0,3.751.186,12.693,12.693,0,0,0-2.524,3.6,12.9,12.9,0,0,1-5.381-5.1c-.121-.2-.419-.026-.323.189a11.181,11.181,0,0,0,5.69,5.407.232.232,0,0,0,.337-.135,10.214,10.214,0,0,1,2.57-3.808c.479.184.972.3,1.449.478,1.2.444,2.049,1.252,2.13-.014A5.76,5.76,0,0,0,90.092,24.723Z" fill="#191919"></path><path d="M90.766,24.075c2.65-1,5.24-2.412,13.5-6.014C118,12.069,121.727,11.537,126.325,9.9a27.444,27.444,0,0,0,2.279,4.261,109.848,109.848,0,0,1-12.406,9.2c-8.172,5.3-11.283,6.077-15.089,8.279-.231.133-.08.544.188.445a76.66,76.66,0,0,0,8.536-4.193A117.713,117.713,0,0,0,129.1,14.407a.267.267,0,0,0,.04-.3c-.081-.161-.175-.337-.256-.5,1.186-1.051,2.644-.646,4.126-.809,1.345-.147,1.807-.732,2.711-1.038.323-.109.647-.094.97-.2a.151.151,0,0,0,.041-.27c-1.045-.643-2.205,1-4.558,1-1.146,0-2.683-.081-3.533.836a26.517,26.517,0,0,0-1.564-2.859c5.512-3.974,5.851-4.017,6.81-4.962a.18.18,0,0,0-.216-.283c-1.314.7-1.408,1-6.8,4.962-.373-.512-.463-.647-.661-.593-7.682,1.664-30.546,11.519-35.586,14.415C90.483,23.873,90.59,24.142,90.766,24.075Z" fill="#191919"></path><path d="M89.067,30.872a.357.357,0,0,0,0,.485.382.382,0,0,0,.526-.027.331.331,0,0,0-.2-.553A.389.389,0,0,0,89.067,30.872Z" fill="#191919"></path><path d="M91.44,36.1a.317.317,0,0,0,0-.634A.317.317,0,0,0,91.44,36.1Z" fill="#191919"></path><path d="M93.166,40.931a.263.263,0,0,0,0-.526A.263.263,0,0,0,93.166,40.931Z" fill="#191919"></path><path d="M94.744,45.583c.172.254.326.173.5,0A.288.288,0,0,0,95,45.152.3.3,0,0,0,94.744,45.583Z" fill="#191919"></path><path d="M133.755,9.876a.154.154,0,0,0,.081.3A43.311,43.311,0,0,0,138.569,8.9a.16.16,0,0,0-.081-.3A42.53,42.53,0,0,0,133.755,9.876Z" fill="#191919"></path><path d="M133.93,8.5a.162.162,0,0,0,.121.3,31.9,31.9,0,0,0,3.79-1.645.17.17,0,0,0-.135-.31A32.735,32.735,0,0,0,133.93,8.5Z" fill="#191919"></path><path d="M133.188,7.8a12.61,12.61,0,0,0,2.805-1.713c.108-.121,0-.4-.189-.324-.117.046-2.767,1.729-2.8,1.753C132.837,7.623,133,7.894,133.188,7.8Z" fill="#191919"></path><path d="M77.079,109.055c-.351-.229-.648.312-.324.553,1.022.76,2.819,2.077,1.888,3.56a6.574,6.574,0,0,1-1.591,1.416c-9.434,7.431-9.7,7.94-10.693,8.01-.954.066-1.559-.427-.674-2.144.938-1.821,3.22-6,4.274-7.754.674-1.119,1.97-2.523,3.331-1.483.229.175.511-.2.3-.391a2.194,2.194,0,0,0-2.6-.149,7.236,7.236,0,0,0-2.238,2.913c-1.528,2.664-2.982,5.368-3.547,6.419a3.644,3.644,0,0,0-.647,1.82,1.632,1.632,0,0,0,1.888,1.389c1.241-.118,2.3-1.269,3.223-2,2.612-2.067,5.219-4.112,7.834-6.176,1.025-.809,2.188-1.576,1.982-3.061A4.58,4.58,0,0,0,77.079,109.055Z" fill="#191919"></path><path d="M173.723,48.321c-1-.768-2.589.2-3.573.58-1.538.591-3.06,1.217-4.585,1.847a13.585,13.585,0,0,0-3.884,1.9,2.324,2.324,0,0,0-.593,3.007c.176.256.595.026.431-.256-.865-1.49.741-2.591,1.915-3.128,1.6-.734,7.079-2.9,8.415-3.385,1.5-.545,1.975.095,1.793,1.011-.145.732.018.621-9.277,9.669a5.537,5.537,0,0,1-1.726,1.443c-1.579.538-2.551-1.307-3.169-2.414-.2-.364-.729-.04-.553.324a4.857,4.857,0,0,0,2.292,2.616,2.5,2.5,0,0,0,2.819-.729c1.5-1.423,8.529-8.449,8.63-8.549a7.08,7.08,0,0,0,1.321-1.524A1.834,1.834,0,0,0,173.723,48.321Z" fill="#191919"></path><path d="M158.445,51.355c-.209-.415-1.009-.759-1.375-1.012-7.682-5.292-22.3-12.717-29.815-13.511-5.3-.56-9.327,1.961-15.6,5.164q-3.8,1.942-7.606,3.938a1.782,1.782,0,0,0-1.658-1.389c2.085-3.485-2.086-8.655-1.605-15.575.016-.229-.358-.282-.391-.054a19.343,19.343,0,0,0,.89,8.024c.715,2.508,1.969,5.178.607,7.605-2.36.236-12.283,6.7-14.267,8.077a5.82,5.82,0,0,0-1.133,1.025,12.641,12.641,0,0,1-5.838-5.771,42.441,42.441,0,0,1-3.061-9.2.161.161,0,0,0-.311.081c.06.323.108.634.176.958a128.33,128.33,0,0,1-27.6,17.732A27.712,27.712,0,0,0,46.793,53.5C58.286,39.458,75.618,30.464,79.264,27.838a.178.178,0,0,0-.176-.31c-3.267,1.539-11.048,6.7-14.024,8.778A105.63,105.63,0,0,0,52.537,46.487c-.264.253-6.176,5.864-6.176,6.823a32.011,32.011,0,0,0-3.007,1.16c-3.709,1.512-2.871,1.537-3.155,1.443-2.609-.558-5.359,1.03-7.268,2.9-.218.213-.5.458-.742.741-3.356-3.356-3.669-3.783-4.45-3.937-1.307-.259-2.6,1.157-3.519,1.888-1.432,1.142-2.819,2.333-4.181,3.56,2.446,2.374,3.359,3.649,10.721,11.408,3.4,3.584,6.877,7.079,10.329,10.625a52.919,52.919,0,0,0,4.76-5.326c.861-1.121,1.336-2.077.35-3.29-1.118-1.377-2.3-2.7-3.519-4,2.725-2.385,3.712-5.074,3.371-7.552a2.622,2.622,0,0,0,2.333-1.806c.34-1.2-.047-1.744,1.065-3.412.129.215.2.412.486.3A126.3,126.3,0,0,0,71.5,45.152c1.284-.951,5.039-3.819,6.135-4.868a27.685,27.685,0,0,0,2.791,8.145c1.276,2.268,3.291,4.679,5.812,5.623a2.189,2.189,0,0,0-.391,1.726q-4.854,3.762-9.695,7.538c-2.969,2.3-6.312,4.529-8.307,7.794-1.9,3.114-2.228,6.877-2.076,10.437.3,7.169,2.374,19.533,3.883,26.645a.35.35,0,0,0,.418.243c8.679-2.113,8.063-1.144,7.916-3.452-1.008-15.767-1.743-19.465-.311-22.155,1.489-2.8,4.765-5,7.053-7.107,13.184-12.147,35.1-23.913,38.808-24.515,4.674-.758,10.964,1.1,15.2,2,19.325,4.074,18.327,3.42,18.366,3.317C157.32,55.917,158.736,51.932,158.445,51.355ZM42.41,67.482a16.079,16.079,0,0,1-1.362,1.376c-3.078-3.25-4.521-4.791-7.537-7.875,1.487-1.653,3.495-3.1,5.69-3.115.1,0-.03.739.27,1.038-.283,1.105.415,1.868.66,1.807.118,1.478,1.326,1.83,1.5,1.659.3.962,1.493,1.22,1.928.175C43.628,62.942,45.141,64.21,42.41,67.482Zm5.219-6.108a2.265,2.265,0,0,1-1.753,1.079,2.307,2.307,0,0,0-1.241-1.578c.184-.183.012-.442-.175-.31a3.347,3.347,0,0,0-.836.89c-.268.392-.537,1.573-1.227,1.213-.968-.505.119-2.127.283-2.737.029-.107-.095-.23-.2-.148a2.834,2.834,0,0,0-.9,2.13,1.6,1.6,0,0,1-.917-1.389c0-.634.4-1.013.621-1.55.066-.163-.148-.295-.284-.216a1.94,1.94,0,0,0-.849,1.5,1.345,1.345,0,0,1-.216-1.268,3.962,3.962,0,0,1,.782-1.092c.121-.162-.108-.324-.256-.256a1.671,1.671,0,0,0-.755.714c-.583-2.8,5.87-3.631,6.8-4.558.728,1.228,1.78,2.252,2.589,3.453C47.692,58.7,48.08,60.4,47.629,61.374Zm39.334-6.122c-.265-.207-.474,0-.728.216-.054-1.349,1.8-2.451,2.805-3.115q2.23-1.468,4.49-2.886c.637,1.157.3,1.329.567,1.82Q90.517,53.249,86.963,55.252Zm7.606-4.221a2.9,2.9,0,0,0-.594-1.834c.782-.485,1.578-.944,2.374-1.4a3.654,3.654,0,0,1,.7,1.9C96.214,50.128,95.391,50.586,94.569,51.031Zm2.885-1.578a3.148,3.148,0,0,0-.795-1.86c1.09-.62,3-1.668,4.153-2.171,1.12-.492,2.6-.5,2.751.755Z" fill="#191919"></path><path d="M30.355,72.984a1.308,1.308,0,0,1-1.362.715c-.831-.238-.921-1.5.1-2.077-.858-.908-7.519-7.983-9.345-10.262-2.018,1.835-4.974,4.7-5.569,5.286a4.253,4.253,0,0,0-1.295,1.861c-.371,1.458.919,2.411,1.821,3.317C20,77.155,29.866,88.678,31.65,89.57c1.321.661,2.476-.235,3.452-1.065,1.865-1.588,3.721-3.2,5.474-4.909C37.1,80.144,33.726,76.557,30.355,72.984Z" fill="#191919"></path><path d="M186.843,37.951a.522.522,0,0,0-.768-.445,47.8,47.8,0,0,0-7.889,4.207c-.1.068-.485,1.047.014,1.349.962.581,1.955,1.105,2.953,1.618-18.212,22.477-35.208,42.151-53.588,62.218-2.725-.85-19.03-5.918-25.432-7.916a5.965,5.965,0,0,0-4.692-.013c-1.377.692-1.627,1.158-7.875,6.621-12.354,10.8-29.195,25.812-41.33,36.934a95.493,95.493,0,0,0-8.765,8.643c-.432.513.137,1.433.768,1,8.591-5.914,56.563-51.522,59.494-51.308.689.05-1.738-.643,27.9,8.576a1.166,1.166,0,0,0,1.159-.31c19.776-22.133,37.5-42.2,54.6-63.337,1.012.458,2.052.885,3.088,1.294a.536.536,0,0,0,.675-.512A56.7,56.7,0,0,0,186.843,37.951Z" fill="#38A1FF"></path><path d="M73.627,190.232a.344.344,0,0,0,.688,0c.212-7.141-.379-18.021-.58-53.277a52.833,52.833,0,0,1,.067-6.729c.689-5.577,4.848-3.813,18.312-3.965,4.6-.051,5.312-.836,6.392,1.268,1.742,3.392.538,4.912,1.173,29.3.293,11.232.692,22.479.486,33.725a.519.519,0,0,0,1.038,0c.283-15.984-.637-32.127-.715-47.1-.055-10.633.334-12.136-.458-14.833-.651-2.214-1.57-3.588-3.857-3.56-16.9.212-19.536-.451-21.656,1.335-2.437,2.054-1.809,6.486-1.793,12.244C72.747,147.156,73.077,182.063,73.627,190.232Z" fill="#38A1FF"></path><path d="M110.319,191.459a.344.344,0,0,0,.687,0c.224-8.291-.388-24-.58-65.872-.014-3.135-.6-9.275,1.416-11.475.974-1.063,2.482-1.119,3.83-1.227,4.469-.358,9.6-.036,13.66-.054a12.125,12.125,0,0,1,4.409.31c1.661.642,2.187,2.535,2.4,4.14.318,2.391-.013,1.98,0,13.727.024,22.116,1.128,35.267.782,59.453a.519.519,0,0,0,1.038,0c.127-19.872-.688-38.038-.769-57.053-.056-13.315.237-12.518.081-15.048a8.61,8.61,0,0,0-1.5-4.963c-1.565-1.927-4.234-1.609-6.445-1.6-4.645.01-9.2-.34-14.092.08a6.779,6.779,0,0,0-3.586,1.012c-1.8,1.332-2.127,3.884-2.225,5.96C109.273,122.137,109.63,180.062,110.319,191.459Z" fill="#38A1FF"></path><path d="M143.936,113.829c.043,10.181.327,66.691.93,76.848a.344.344,0,0,0,.688,0c.226-8.791-.435-38.254-.594-80.489-.037-10.1-.7-14.961,2.657-16.991,3.837-2.324,9.659-1.581,16.559-1.564a5.985,5.985,0,0,1,5.771,4.019c1.211,3.21.78,6.863.742,10.221-.321,28.124,1.752,57.27,1.308,83.321a.519.519,0,0,0,1.038,0c.147-27.73-1.476-53.86-1.335-80.3.034-6.221,1.263-14.509-3.883-17.408-2.089-1.177-3.663-.82-7.74-.944-5.136-.157-12.947-.441-15.184,4.194C143.618,97.376,143.873,99.232,143.936,113.829Z" fill="#38A1FF"></path><path d="M182.38,193c-17,0-14.486.469-74.138.917-46.517.348-45.53-.024-45.295,0-.5-.068-.728.685-.215.768,5.246.847,116.891-.169,119.581-1.065C182.828,193.617,182.785,192.957,182.38,193Z" fill="#38A1FF"></path><path d="M68.678,30.238a36.967,36.967,0,0,1,4.019-2.5,8.3,8.3,0,0,0-3.79-3.3A50.516,50.516,0,0,0,63.5,27.015,12.172,12.172,0,0,0,68.678,30.238Z" fill="#38A1FF"></path><path d="M62.448,34.148A42.328,42.328,0,0,0,67.869,30.8a10.886,10.886,0,0,1-4.908-3.533A12.4,12.4,0,0,1,57.338,28.4C60.515,33.17,61.561,33.344,62.448,34.148Z" fill="#38A1FF"></path><path d="M53.225,34.9A22.563,22.563,0,0,1,49.881,27.6c-.971-.2-1.932-.407-2.886-.688-.677-.2-.78,1.5-4.6,4.814a.385.385,0,0,0,.081.607,57.429,57.429,0,0,1,5.124,4.14,1.313,1.313,0,0,0,1.079.337c1.256-.044,3.96-.268,5.758-.5A6.408,6.408,0,0,1,53.225,34.9Z" fill="#38A1FF"></path><path d="M60.614,33.636a18.491,18.491,0,0,1-3.87-5.232,40.094,40.094,0,0,1-6.391-.7,34.359,34.359,0,0,0,3.317,6.661,12.956,12.956,0,0,1,1.483,1.875,23.9,23.9,0,0,0,6.486-1.713A12.967,12.967,0,0,1,60.614,33.636Z" fill="#38A1FF"></path><path d="M79.668,25.087c-2.7-1.932-6.666-1.917-9.884-.931a8.747,8.747,0,0,1,3.641,3.25,13.557,13.557,0,0,1,6.054-1.47C80,25.915,79.782,25.168,79.668,25.087Z" fill="#38A1FF"></path></svg>