<svg viewBox="0 0 200 200" height="400" width="400" xmlns="http://www.w3.org/2000/svg"><path d="M107.865,95.273c-9.429-4.49-16.6-8.122-27.473-13.453,5.246,26.866,6.116,40.615,10.293,46.345C94.794,120.87,104.2,104.3,107.865,95.273Z" fill="#38A1FF"></path><path d="M163.666,83.168c-6.065,6.573-14.7,15.8-21.195,22.016-2.375,2.273-4.276,3.9-9.578,1.551-9.579-4.251-16.864-7.6-23.219-10.6-4.548,11.153-11.812,23.314-17.949,34.266,5.084,1.867,13.6-.712,29.715-5.137,33.783-9.26,62.608-8.831,70.443-12.44C184.777,105.626,172.978,93.628,163.666,83.168Z" fill="#38A1FF"></path><path d="M133.7,104.906c4.534,2.014,5.564.561,7.754-1.521,9.141-8.691,31.42-32.949,44.9-48.52-3.059-3.528-6.249-3.061-81.546,13.184-8.09,1.81-26.49,4.461-26.627,9.444C80.518,79.25,107.5,93.276,133.7,104.906Z" fill="#38A1FF"></path><path d="M191.759,109.848c-3.306-30.444-3.95-44.435-5.1-52.233C178.93,66.369,172.9,73.127,165.028,81.69,173.681,91.421,184.549,102.537,191.759,109.848Z" fill="#38A1FF"></path><path d="M83.681,109.354c-.494,1.253,1.024.062,1.5-.1a7.932,7.932,0,0,1,3.185-.549C89.3,107.114,83.874,108.863,83.681,109.354Z" fill="#191919"></path><path d="M89.221,109.349c-1.148-.342-6.115.465-5.2,1.385.929-.016,1.734-.477,3.082-.686C87.9,109.924,90.24,110.276,89.221,109.349Z" fill="#191919"></path><path d="M87.981,110.483c-.889.129-4.434.558-3.619,1.366a11.333,11.333,0,0,0,2.717-.611C87.618,111.113,88.9,110.9,87.981,110.483Z" fill="#191919"></path><path d="M87.316,101.5c-2.2.183-4.656-.323-4.82.17C82.359,102.486,88.53,102.308,87.316,101.5Z" fill="#191919"></path><path d="M82.92,100.33c-1.958,1.268,6.335.756,5.2-.366C87.539,99.522,87.421,100.824,82.92,100.33Z" fill="#191919"></path><path d="M82.97,99.158c-1.882,1.033,5.258.89,3.623-.095A22.687,22.687,0,0,1,82.97,99.158Z" fill="#191919"></path><path d="M87.764,111.658c-5.988,2.226-4.339-1.186-6.95,1a2.742,2.742,0,0,0-.781-1.981c.486-.667,5.727-2.271,5.168-3.064-.193-.213-.273-.2-.575-.016a30.04,30.04,0,0,1-6.012,2.777,25.221,25.221,0,0,1-5.763,1.039c-.563.718.574.574,1.084.522,3.565-.144,5.1-1.591,5.757-.694.43.54.861,1.649.151,2.034-6.557,4.014-17.443,8.712-29,11.52-.626.227-1.064-.2-1.7-.53-4.827-3.189-3.29-7.2-2.073-11.215a23.59,23.59,0,0,0,.815-8.023c-.268-.691,1.723-1.271,2.037-1.616a36.948,36.948,0,0,1,11.626-4.132c-.9,1.336-.59,2.633-1.692,2.993-3.876.674-1.537,3.436-3.258,5.323a1.473,1.473,0,0,1-1,.368c-2.114.15-2.862,2.222-2.786,4.019.133,5.1,8.7,5.982,11.668,4.609,3.2-1.572-.448-2.918,3.386-4.86a2.77,2.77,0,0,0,.574-1.541c1.291.31,2.717.979,3.894.229,1.211-.774.515-2.455.621-3.511.314-.53,1.4-1.232.758-1.623-.555-.386-1.246.085-1.467-.992,2.742-1.042,9.271-1.866,9.473-1.082.828,2.02,2.615.9,1.239.508-.63-.242-.564-.82-.861-1.322-2.584-.547-3.943,1.02-3.668-2.267.256-1.524,1.866-.067,2.682-.68,1.531-1.148,3.363-.9,5.144-.92.341-.312.118-.584-.455-.617-2.094-.124-3.828-.171-5.228,1.174-.143.169-.155.083-.48.03a48.3,48.3,0,0,0-10.305-1.2,6.222,6.222,0,0,0-7.549.591,45.756,45.756,0,0,0-5.225,1.175c-2.44.682-10.537,4.062-9.753,5.265a19.459,19.459,0,0,1-.2,5.274c.031-.164-13.052-3.36-30.43,14.95-2.331,2.461-6.145,7.089-6.148,7.155-3-2.383-6.995,5.935-4.9,4.583.431-2.009,2.942-5.853,5.044-3.666-1.662.233-3.279,2.486-4.114,4.084-.706,1.267,6.638-1.777,6.638-1.777l35.022-11.167a7.373,7.373,0,0,0,2.231,1.148c1.329-.153,2.5-.683,3.8-.957a111.158,111.158,0,0,0,28.139-12.008C84.045,113.9,89.677,112.116,87.764,111.658ZM77.909,99.682c-.4,2.2.732,2.535-.527,2.754a43.836,43.836,0,0,0-5.142,1.292,5.061,5.061,0,0,0-1.782-5.281C74.271,98.469,78.05,98.905,77.909,99.682Zm-8.217,6.68a5.283,5.283,0,0,0,2.032-1.632c.138.9.594.69,1.368,1.025a6.824,6.824,0,0,0-.848,1.122c-.183.486,1.105,3.444-1.368,3.242a23.979,23.979,0,0,1-2.414-.526C68.472,108.4,68.341,107.214,69.692,106.362Zm-57.34,28.162a2,2,0,0,0,.356.56L7.213,137.04C8.14,135.4,10.557,132.631,12.352,134.524Zm.381-.5a2.812,2.812,0,0,0-.742-.553c6.506-3.5,22.928-19.8,31.923-16.338-12.333,1.539-12.024,3.739-26.677,13.725C17.162,130.752,14.574,132.965,12.733,134.019Z" fill="#191919"></path><path d="M57.252,94.922c.5-.768,16.918-4.736,17.21-4.689,1.092-.086,1.208.431.3.8-1.005.339-11.378,2.627-12.39,2.891C60.937,94.23,57.35,95.186,57.252,94.922Z" fill="#191919"></path><path d="M75.87,87.483c-.168.332-.807.446-1.179.632-1.355.535-12.842,3.539-13.466,3.134-.266-.143-.207-.439.044-.614a8.071,8.071,0,0,1,1.835-.446C64.172,89.929,75.515,87.141,75.87,87.483Z" fill="#191919"></path><path d="M66.345,131.745c-.168.332-.807.445-1.179.632-1.355.534-12.841,3.539-13.466,3.135-.267-.144-.206-.44.045-.615a8.116,8.116,0,0,1,1.834-.446C54.644,134.191,65.99,131.4,66.345,131.745Z" fill="#191919"></path><path d="M75.9,67.892c.172-2.825-1.77-8-6.322-8.121-2.831-.073-4.492,1.39-6.138,3.691a8.64,8.64,0,0,0-4.029-7.191,7.686,7.686,0,0,0-8.142.166,7.249,7.249,0,0,0-3.035,6.479,7.372,7.372,0,0,0-8.225-4.149c-3.266.694-6.746,3.612-6.689,9.125Z" fill="#38A1FF"></path><path d="M195,136.033c.014-2.316-.288-5.129-2.3-6.261-2.074-1.163-4.543.179-6.526,1.49-.648-2.27-1.96-10.073-8.469-10.448-8.385-.481-10.706,6.137-9.779,8.781-1.784-2.668-5.815-3.219-8.593-1.61a9.6,9.6,0,0,0-4.4,8.048Z" fill="#38A1FF"></path><path d="M129.754,146.914a4.763,4.763,0,0,1,8.858-2.5,5.327,5.327,0,0,1,9.834-2.463,2.842,2.842,0,0,1,2.634-2.6c2.815-.246,5.836,3.127,5.119,7.06Z" fill="#38A1FF"></path></svg>